<svg version="1.0" xmlns="http://www.w3.org/2000/svg" width="200.000000pt" height="200.000000pt" viewBox="0 0 200.000000 200.000000"><path d="M0 1000 l0 -1000 1000 0 1000 0 0 1000 0 1000 -1000 0 -1000 0 0 -1000z m500 20 l0 -150 23 0 c29 0 37 -7 30 -26 -4 -10 -24 -14 -74 -14 -62 0 -69 2 -69 20 0 15 7 20 25 20 l25 0 0 130 0 130 -35 0 c-31 0 -35 -3 -35 -25 0 -16 -6 -25 -15 -25 -11 0 -15 12 -15 45 l0 45 70 0 70 0 0 -150z m430 -20 l0 -170 -100 0 c-93 0 -100 1 -100 20 0 18 7 20 80 20 l80 0 0 55 0 55 -75 0 c-68 0 -75 2 -75 20 0 17 8 19 73 22 l72 3 3 53 3 52 -80 0 c-74 0 -81 2 -81 20 0 19 7 20 100 20 l100 0 0 -170z m358 -2 l2 -168 -105 0 c-98 0 -105 1 -105 20 0 18 7 20 80 20 l80 0 0 55 0 54 -72 3 c-60 2 -73 6 -76 21 -3 15 6 17 72 17 l76 0 0 55 0 55 -80 0 c-74 0 -80 2 -80 20 0 20 5 21 103 18 l102 -3 3 -167z m352 2 c0 -163 -1 -170 -20 -170 -19 0 -20 7 -20 150 l0 150 -65 0 -65 0 0 -40 c0 -33 -3 -40 -20 -40 -18 0 -20 7 -20 60 l0 60 105 0 105 0 0 -170z" transform="translate(0.000000,200.000000) scale(0.100000,-0.100000)"/></svg>