<svg version="1.1" id="Calque_1" xmlns="http://www.w3.org/2000/svg" x="0px" y="0px" viewBox="0 0 226.8 226.8" style="enable-background:new 0 0 226.8 226.8" xml:space="preserve"><style>.Voûte _x002D__x0020_Vert{fill:url(#SVGID_1_);stroke:#FFFFFF;stroke-width:0.25;stroke-miterlimit:1}.st0{fill:#004B92}.st1{fill:none;stroke:#008B45;stroke-width:4.020000e-02;stroke-miterlimit:3.8637}.st3{fill:none;stroke:#004B92;stroke-width:4.020000e-02;stroke-miterlimit:3.8637}.st5{fill:#A3A4A6}</style><linearGradient id="SVGID_1_" gradientUnits="userSpaceOnUse" x1="-184.2544" y1="534.3306" x2="-183.5473" y2="533.6235"><stop offset="0" style="stop-color:#259E2E"/><stop offset="0.9831" style="stop-color:#1C381D"/></linearGradient><path class="st0" d="M58.6,178.5c8.3,0,15-5.6,15-14.6c0-9.8-7.5-14.7-15-14.7s-14.9,4.9-14.9,14.7C43.6,173,50.3,178.5,58.6,178.5 L58.6,178.5z M58.6,177c-5.1,0-9.7-3.8-9.7-13.1c0-9.7,5.1-13.1,9.7-13.1c4.7,0,9.7,3.4,9.7,13.1C68.3,173.2,63.6,177,58.6,177 L58.6,177z"/><path class="st0" d="M97,168.1v-9.9h-1c-0.5,3.2-1.3,4-5,4h-6.6v-9.4c0-1.3,0.3-1.4,1.5-1.4H92c5.1,0,6.3,0.7,7,4.5h1.1l-0.1-6.1 H75.6v0.8c2.9,0.2,4,0.5,4,3.8v18.4c0,3.5-0.6,4.1-4,4.3v0.8h12.8v-0.8c-3.2-0.1-4.2-0.6-4.2-3.8V164l6.6,0.1c3.4,0,4.5,0.5,5,4H97 L97,168.1z"/><path class="st0" d="M101.2,150.6c3.3,0.3,3.8,0.8,3.8,3.8v18.4c0,3.1,0,4-3.8,4.3v0.8H114v-0.8c-3.5-0.1-4.3-0.7-4.3-3.8v-7.7 c1.1,0.1,2,0.1,3.1,0.1c4.8,0,7.7-0.8,9.7-2.5c0.8-0.7,2.8-2.4,2.8-5.7c0-5.4-5.7-7.7-12-7.7h-12.1V150.6L101.2,150.6z M109.7,152.8c0-1.4,0.5-1.4,1.9-1.4c2,0,8.7,0.1,8.7,6.2c0,6.5-6.1,6.5-7.8,6.5c-1,0-1.9,0-2.7-0.1V152.8L109.7,152.8z"/><path class="st0" d="M126.7,150.6c3.3,0.3,3.8,0.8,3.8,3.8v18.4c0,3.1,0,4-3.8,4.3v0.8h12.8v-0.8c-3.5-0.1-4.3-0.7-4.3-3.8v-7.7 c1.1,0.1,2,0.1,3.1,0.1c4.8,0,7.7-0.8,9.7-2.5c0.8-0.7,2.8-2.4,2.8-5.7c0-5.4-5.7-7.7-12-7.7h-12.1V150.6L126.7,150.6z M135.2,152.8c0-1.4,0.5-1.4,1.9-1.4c2,0,8.7,0.1,8.7,6.2c0,6.5-6.1,6.5-7.8,6.5c-1,0-1.9,0-2.7-0.1V152.8L135.2,152.8z"/><path class="st0" d="M172,177.1c-3.8-0.1-4.4-0.9-4.4-3.8v-21.7h2.5c5,0,6.3,0.8,7.3,5.4h1.1l-0.3-7.2h-25.8l-0.3,7.2h1.1 c1-4.6,2.2-5.4,7.3-5.4h2.5v21.3c0,3.1-0.1,4.1-4.3,4.3v0.8H172V177.1L172,177.1z"/><polygon class="st1" points="36.7,93.8 62.3,68.2 87.8,93.8 62.3,119.4 36.7,93.8"/><polygon class="st1" points="16.6,93.9 62.3,48.2 107.9,93.9 62.3,139.5 16.6,93.9"/><path d="M139,93.8l25.6-25.6l25.6,25.6l-25.6,25.6L139,93.8L139,93.8z M118.9,93.9l45.6-45.6l45.6,45.6l-45.6,45.6 L118.9,93.9L118.9,93.9z" style="fill-rule:evenodd;clip-rule:evenodd;fill:#004B92"/><polygon class="st3" points="139,93.8 164.5,68.2 190.1,93.8 164.5,119.4 139,93.8"/><path d="M36.7,93.8l25.6-25.6l25.6,25.6l-25.6,25.6L36.7,93.8L36.7,93.8z M16.6,93.9l45.6-45.6l45.6,45.6l-45.6,45.6 L16.6,93.9L16.6,93.9z" style="fill-rule:evenodd;clip-rule:evenodd;fill:#008B45"/><polygon class="st5" points="139,73.8 113.4,48.2 67.8,93.9 77.8,103.9 77.8,103.9 113.4,68.2 129,83.8 139,73.8"/><polygon class="st3" points="118.9,93.9 164.5,48.2 210.1,93.9 164.5,139.5 118.9,93.9"/><polygon class="st5" points="87.7,114 113.2,139.5 158.9,93.9 148.9,83.9 148.9,83.9 113.2,119.5 97.7,104 87.7,114"/></svg>