<svg xmlns="http://www.w3.org/2000/svg" viewBox="0 0 529.39 333.29"><defs><style>.cls-1{fill:#fff;stroke:#000;stroke-miterlimit:11.34;stroke-width:0.04px}</style></defs><g id="Layer_2" data-name="Layer 2"><g id="svg1"><g id="layer1"><rect id="rect1" class="cls-1" x="3.9" y="2.81" width="117.16" height="117.16"/><rect id="rect1-2" class="cls-1" x="139.42" y="3.34" width="117.16" height="117.16"/><rect id="rect1-2-7" class="cls-1" x="273.69" y="3.17" width="117.16" height="117.16"/><rect id="rect1-2-7-3" class="cls-1" x="409.94" y="1.92" width="117.16" height="117.16"/><path id="path1" d="M.6,61.32V0H123.23V122.63H.6Zm65.36,39c2.59-.31,4.56-.62,7.25-1.13a4.08,4.08,0,0,0,1.25-.41,4.28,4.28,0,0,1,1.19-.44c3.19-.76,8-3.82,11.31-7.25,1.55-1.59,4.28-5.48,4.28-6.09,0-.19.12-.34.25-.34s.44-.53.67-1.17.58-1.6.8-2.12c1.81-4.41,1.83-4.85,2-31.92l.1-25-9,.09-9,.08L76.81,48.3c-.12,16.12-.28,24-.52,24.78A15.41,15.41,0,0,1,72,80.36C68.1,84.23,58.56,84.81,53.7,81.5c-2.47-1.69-3.94-3.67-5.43-7.32-.65-1.59-.73-3.93-.91-26l-.18-23.52H29l-.09,22.9c-.08,23,.11,28.08,1.16,30.73.14.35.51,1.48.83,2.51.62,2,2,4.95,2.41,5.12a.51.51,0,0,1,.23.44c0,.55,3.07,4.49,4.5,5.77,3.28,2.94,7.34,5.4,10.25,6.21.43.12,1.06.34,1.41.48a24.11,24.11,0,0,0,6.63,1.3,30.55,30.55,0,0,1,3.53.47c.24.23,3.22.13,6.11-.21Zm70.13-39V0H258.73V122.63H136.09Zm40.07,16.17.08-21.15,1.49,2c.81,1.11,1.66,2.2,1.88,2.43a1.48,1.48,0,0,1,.39.63,4.5,4.5,0,0,0,.79,1.12,4.18,4.18,0,0,1,.78,1.12,2.33,2.33,0,0,0,.56.81c.31.34,2,2.66,3.84,5.16s3.45,4.73,3.67,5a1.41,1.41,0,0,1,.4.65,2.36,2.36,0,0,0,.56.84c.31.33,1.88,2.44,3.49,4.68s3,4.2,3.17,4.35,1.27-1.13,2.53-2.83,3.1-4.17,4.1-5.5a16.56,16.56,0,0,0,1.83-2.72.48.48,0,0,1,.26-.41c.14-.06,1.58-1.94,3.2-4.18s3.4-4.66,4-5.36a5.88,5.88,0,0,0,1-1.62.52.52,0,0,1,.23-.44,28.53,28.53,0,0,0,2.2-2.75l2-2.65V77.33c0,11.38.11,20.86.25,21.08s2.25.38,9.17.31l8.92-.08L237,61.55l.08-37.09H219.6l-1.84,2.75c-1.54,2.29-5.14,7.53-6.84,10-.88,1.25-4.35,6.32-5.69,8.31-.75,1.12-2.3,3.38-3.45,5s-2.57,3.73-3.17,4.65l-1.1,1.68-.61-1c-.33-.55-.75-1.17-.91-1.37-.43-.51-4.07-5.74-6.38-9.15-1.05-1.55-2-3-2.16-3.14s-1.51-2.14-3-4.39-3.09-4.5-3.45-5-1.81-2.6-3.21-4.63l-2.56-3.69H158.05v37c0,20.33.09,37.05.21,37.17s4.18.18,9,.13l8.8-.08Zm95.42-16.17V0H394.22V122.63H271.58Zm67.49,39a3.53,3.53,0,0,1,1.33-.27,17.86,17.86,0,0,0,5.45-1.75,10.83,10.83,0,0,1,2-.76.28.28,0,0,0,.3-.24c0-.13.43-.42.95-.65a5.93,5.93,0,0,0,1.33-.79c.21-.2,1.11-.94,2-1.63a27.25,27.25,0,0,0,9.2-15.51c.68-3.18.16-10.6-1-13.64a24.94,24.94,0,0,0-13.3-14.45c-2.79-1.3-3.41-1.49-7.66-2.36a28.33,28.33,0,0,1-3.07-.73A35,35,0,0,1,340,42.08a.52.52,0,0,0,.24-.44,4,4,0,0,1,.73-1.31,26,26,0,0,0,1.63-2.54,16.22,16.22,0,0,1,1.08-1.72,10.05,10.05,0,0,0,.77-1.26,8.62,8.62,0,0,1,.79-1.25,3.94,3.94,0,0,0,.49-.69c.17-.29,1.28-2,2.45-3.87s2.07-3.54,2-3.78-1.84-.44-9.9-.44c-8.9,0-9.78,0-10.29.55-.3.31-3.52,5.25-7.13,11s-7.11,11.23-7.77,12.22a20.25,20.25,0,0,0-1.37,2.36c-.1.3-.29.55-.42.55s-.32.24-.43.55a7.09,7.09,0,0,1-1.15,2A109.79,109.79,0,0,0,306,63.51c-.49,1-1,2.15-1.19,2.47-.53,1-.95,6.52-.75,9.94a25.13,25.13,0,0,0,1.42,7.66c.16.35.54,1.2.84,1.89a8.59,8.59,0,0,0,.73,1.41,9.59,9.59,0,0,1,.77,1.23c1.4,2.5,5.29,6.34,8.38,8.27a27.36,27.36,0,0,0,13.13,4.28c3.15.25,9,0,9.78-.34Zm-8.21-16.17a11.58,11.58,0,0,1-6.23-3.07,13.24,13.24,0,0,1-2.51-4.89c-1-3.24.45-7.82,3.29-10.31,2.15-1.9,3.66-2.37,7.52-2.37,3.19,0,3.61.07,5.24.9a11.64,11.64,0,0,1,4.91,4.94,8.84,8.84,0,0,1,.67,4.24c0,2.53-.09,3.1-.84,4.64-2.24,4.56-6,6.43-12.05,5.92Zm75.9-22.83V0H529.39V122.63H406.76Zm48,27V78.13L465.18,78c5.73-.07,11.2-.28,12.15-.46a32.19,32.19,0,0,0,5.18-1.29l1.86-.82a25.21,25.21,0,0,0,6.11-4.11c1.9-1.7,5.36-5.94,5.36-6.56a.56.56,0,0,1,.26-.51c.36-.14,1.78-3.24,2.34-5.12a22.47,22.47,0,0,0,1.07-8.78c-.16-4.51-.51-6.29-1.94-9.72-1.07-2.56-1.28-3-1.46-3s-.28-.25-.39-.55a7.09,7.09,0,0,0-1.15-2c-.09-.09-.63-.76-1.2-1.49s-1.21-1.34-1.43-1.34a2.58,2.58,0,0,1-1.15-.81,30.15,30.15,0,0,0-6.72-4.67A17.15,17.15,0,0,0,478.68,25c-1.91-.41-5.29-.49-22-.49H436.87v74h17.88Zm0-37.33V40.46h9.33c6.75,0,9.63.12,10.43.41a10.08,10.08,0,0,1,6.11,5.41c.86,1.64.94,2.08.94,4.84s-.09,3.22-.89,4.8A9.29,9.29,0,0,1,477,60c-2.1,1.31-3.25,1.43-13,1.43h-9.29Z" style="fill:#d84b2b"/><path id="path2" d="M89.32,333.09c0-.11,1.15-2.78,2.54-5.94a49.52,49.52,0,0,0,2.54-6.45c0-.59-9.18-20.52-12.26-26.62l-1-1.9h4.87l5.31,11.64c2.92,6.4,5.43,11.52,5.57,11.38s2.44-5.31,5.1-11.51l4.84-11.26,2.35-.15,2.36-.15-4.81,11.06c-2.65,6.09-6.66,15.35-8.92,20.58l-4.11,9.52H91.53a6.34,6.34,0,0,1-2.21-.2Zm-46-13a15.3,15.3,0,0,1-4.46-23.74c3.19-3.55,6.46-4.93,11.68-4.91,4.84,0,7.77,1.15,10.75,4.12,3.26,3.26,4,5.24,4,11.07,0,5.54-.42,6.8-3.37,10.17s-5.62,4.49-10.81,4.7C46.71,321.69,46.25,321.6,43.28,320.1Zm12.8-3.79c6.39-3.75,7.26-13.44,1.65-18.37a10.62,10.62,0,0,0-8.51-2.62c-7,.51-11.57,7.46-9.6,14.49.86,3.07,4.5,6.86,7.35,7.64a13.15,13.15,0,0,0,9.11-1.14Zm70,4.77a8.28,8.28,0,0,1-2.72-1.55c-2.28-2.13-2.59-3.82-2.59-14.14v-9.66H114.7v-3.55h6.09V282h4.06v10.15H135v3.55H124.79l.16,9.69.15,9.69,1.43,1.22a6.09,6.09,0,0,0,6.11.75c1.13-.43,1.32-.32,1.81,1.09.8,2.28.79,2.3-2,2.9s-4.19.63-6.34,0Zm21.28-.29a15.37,15.37,0,0,1-7.69-7c-1.17-2.25-1.36-3.23-1.37-7.18s.19-5,1.2-7c2.72-5.55,7-8.17,13.5-8.18,3.43,0,4.51.21,6.95,1.41a14.12,14.12,0,0,1,7.51,12.88v2.19H142.21l.38,1.65c1.24,5.5,5.21,8.51,11.19,8.49a10.86,10.86,0,0,0,8-3.75c1.6-1.81,1.73-1.87,3.42-1.31,1,.32,1.76.76,1.76,1a14.23,14.23,0,0,1-2.13,2.83c-3.08,3.49-6.21,4.81-11.32,4.77a24.08,24.08,0,0,1-6.14-.78Zm15.74-16.35c.53-.85-.81-4.21-2.38-6-2.06-2.34-4.16-3.21-7.8-3.21-4,0-7,1.51-8.86,4.49a9.26,9.26,0,0,0-1.47,3.73v1.43h10.12c5.57,0,10.24-.2,10.39-.43Zm17.81,16A14.8,14.8,0,0,1,172.42,307c-.09-6.56,2.75-11.48,8.14-14.13,2.48-1.21,3.5-1.42,7-1.39a17.7,17.7,0,0,1,5.91.84,18.37,18.37,0,0,1,6.83,6.07c.71,1.39.69,1.47-.58,1.95-2.11.8-3,.56-4-1.14-2.16-3.39-8.4-5-12.58-3.26-2.14.89-5.15,4.27-5.94,6.66a13.36,13.36,0,0,0,1.31,10.25A10.66,10.66,0,0,0,193,316.39a9.68,9.68,0,0,0,3.16-2.86c.71-1.38.85-1.43,2.73-.95,1.54.39,1.93.7,1.75,1.41-.41,1.59-3.2,4.54-5.62,6-2,1.16-3,1.4-6.94,1.54s-4.9,0-7.13-1.06Zm116.34.46a14.64,14.64,0,0,1-7.9-7.14c-1.19-2.23-1.35-3.12-1.35-7.36,0-5.47.82-7.64,4.14-11,6-6,17.5-5.34,22.34,1.21,1.74,2.36,1.68,3.27-.25,3.84-1.56.46-1.78.37-3.22-1.38a10.15,10.15,0,0,0-8.3-3.88c-7.57,0-12.51,7.15-10.34,15,.79,2.83,4.6,6.56,7.55,7.37,4.25,1.16,10.28-1.05,11.77-4.32.48-1.06.7-1.12,2.37-.66,2.36.64,2.31.56,1.42,2.25a14.78,14.78,0,0,1-6.42,5.72c-2.71,1.23-8.81,1.4-11.81.33ZM.51,300.51v-20.6l11,.18c10.14.16,11.2.26,13.06,1.26a13.36,13.36,0,0,1,3.61,21.16c-3.21,3.3-5.48,3.88-15.11,3.88h-8v14.72H.51Zm23.51.14c4.59-3.5,5-9.16,1-13.6-2.33-2.58-4.05-3-12.7-3H5.08V302.4l8.54-.16c8.46-.16,8.56-.18,10.4-1.59Zm48.05-.86V278.48h4.57v42.63H72.07Zm135,0V278.48h4.57v18.11l2-1.94c5.47-5.2,14.73-4.3,18.5,1.8l1.54,2.5.16,11.08.17,11.08h-4l-.18-10c-.2-10.86-.48-12.09-3.25-14.27s-8.26-2-11.18.56c-3.42,3-3.75,4.3-3.75,14.58v9.16h-4.57Zm35,6.85V292.18h4.06V297l1.9-1.82c3.07-2.94,4.95-3.69,9.3-3.7,3.4,0,4.13.17,6.32,1.52a9.51,9.51,0,0,1,3.76,4c1.26,2.43,1.31,2.89,1.46,13.32l.17,10.8h-4l-.2-9.77c-.21-10.84-.64-12.59-3.6-14.69-3.69-2.63-10-1.37-12.72,2.53-1.88,2.73-2.34,5.49-2.35,14.19v7.74h-4.06Zm35,0V292.18h4.06v28.93h-4.06Zm-.22-21.35c-1.87-1.87-.15-5,2.56-4.69a2.87,2.87,0,0,1,2.18,1.5c.67,1.2.65,1.47-.13,2.66a3.07,3.07,0,0,1-4.61.53ZM56.47,258.86a17,17,0,0,1-8.3-7.9,14.06,14.06,0,0,1-1.2-6.49c0-6.23,2.68-10.74,8.1-13.61,2.2-1.17,3.14-1.35,7.1-1.35s4.9.18,7.11,1.35c5.41,2.87,8.07,7.36,8.06,13.61A14.22,14.22,0,0,1,76.16,251a16.45,16.45,0,0,1-8.5,7.93,21.14,21.14,0,0,1-11.19,0Zm12.1-5a13.11,13.11,0,0,0,3.37-3.79c1-2,1.19-2.85,1-6.17s-.36-4.16-1.76-6.09c-2.42-3.34-5.19-4.61-9.61-4.4-2.81.14-4,.45-5.47,1.44-7.11,4.81-6.68,16,.76,19.73,1.81.91,2.89,1.09,5.86,1s4-.4,5.8-1.68Zm58.81,5.37a15.35,15.35,0,0,1-9.34-9,21.52,21.52,0,0,1,0-11.59,13.9,13.9,0,0,1,3.48-5.13c3.23-3.23,6.8-4.49,11.64-4.1a12.34,12.34,0,0,1,8.51,3.84l1.91,1.83v-5.29h4.06v29.44h-4.06V254l-2.49,2.24a15.35,15.35,0,0,1-4.5,2.84,22.79,22.79,0,0,1-9.26.12Zm10.24-4.64a12.53,12.53,0,0,0,5.51-6.55c2.15-7.74-3-14.72-10.85-14.72-9.92,0-14.69,11.81-7.74,19.16a10.79,10.79,0,0,0,13.08,2.11ZM270.86,259a14.4,14.4,0,0,1-9.52-10.89c-2-9.66,3.93-18.08,13.21-18.74,8.91-.64,15,4.51,15.64,13.2l.25,3.43H265.3l.3,1.84c.69,4.28,4.48,7.56,9.38,8.13a10.39,10.39,0,0,0,9.2-3.22c2.05-2,2.43-2.23,3.78-1.84a2.92,2.92,0,0,1,1.7,1c.3.9-3.83,5.15-6.19,6.37-2.63,1.36-9.74,1.75-12.61.69Zm15.3-16.82c.33-.33-1.07-4-2.06-5.46-2.6-3.69-9.37-4.79-13.75-2.23-2.53,1.48-4.92,4.88-4.92,7v1.23l10.28-.17c5.65-.09,10.35-.25,10.45-.35Zm19.36,17a16.07,16.07,0,0,1-8.94-7.74c-1.32-2.54-1.55-9.25-.43-12.64a15.06,15.06,0,0,1,8.89-8.79c5.5-1.64,10.72-.61,14.32,2.81a19.55,19.55,0,0,0,2.24,2c.09,0,.17-4.11.17-9.14v-9.13h4.06v42.63h-4.06v-2.54a5.8,5.8,0,0,0-.29-2.53,6.85,6.85,0,0,0-1.63,1.59c-2.08,2.47-5.83,4-9.76,3.94a22.5,22.5,0,0,1-4.57-.43Zm10.22-4.63c9.6-4.9,6.78-20.29-3.88-21.18-4-.33-5.9.19-8.35,2.29a11.69,11.69,0,0,0,1.29,18.74c2.86,1.87,7.44,1.94,10.94.15ZM.51,238.64V218.08H4.93L12.49,229c4.16,6,7.67,10.9,7.81,10.9S24,235,28.11,229l7.56-10.91h4.42v41.11H35.54l-.13-16.54-.14-16.54-7.35,10.45C23.87,242.31,20.45,247,20.31,247s-3.57-4.73-7.62-10.48L5.33,226.05,5.2,242.62l-.14,16.57H.51Zm83.74-.76V216.56h4.06V235l2-2c6-6,16.07-4.44,19.47,2.95.93,2,1.07,3.46,1.23,12.81l.18,10.53h-4.66V249.4c0-9.15-.08-9.93-1.14-12-1.59-3.09-3.78-4.2-7.85-4-2.6.15-3.49.45-5,1.7-3.56,2.88-4,4.34-4.15,14.8l-.15,9.26h-4Zm71.56,6.59V229.75h4.57v4.57l1.91-1.91c4.48-4.48,13-4.07,16.18.78l1.11,1.66,1.1-1.54c3.19-4.48,12.37-5.38,16.8-1.66,3.26,2.75,3.72,4.71,3.92,16.76l.17,10.78h-4.65v-9.91c0-10.7-.28-12.15-2.71-14.4-1.6-1.47-5.66-2-8-1.07a10.4,10.4,0,0,0-5,5.95,74.66,74.66,0,0,0-.53,10.68v8.75h-4l-.18-10.28c-.15-8.68-.32-10.53-1.09-11.95-2.39-4.42-8.72-4.94-12.38-1-2.33,2.5-2.68,4.35-2.68,14.11v9.15h-4.57Zm53.8,0V229.75h4.06v4.8l1.51-1.66c4.36-4.77,12.67-4.79,16.4,0l1.34,1.72,1.46-1.6a10.86,10.86,0,0,1,7.66-3.59c4.16-.37,7,.57,9.48,3.13,2.87,3,3.25,4.95,3.25,16.75v9.92h-4l-.18-10c-.16-8.91-.3-10.25-1.22-12a7.38,7.38,0,0,0-6.72-3.85c-4,0-7.17,2.72-8.19,7.11a80.58,80.58,0,0,0-.53,10.52v8.25h-4.06v-9.46c0-10.39-.39-12.59-2.59-14.69-2.89-2.78-8.67-2.06-11.23,1.39-2.12,2.84-2.42,4.62-2.42,13.95v8.81h-4.06Zm152.48,12.84c-1.76-4.14-15.09-37.5-15.33-38.34s.11-.89,2.06-.89h2.3l6.95,17.56c3.82,9.65,7.12,17.36,7.34,17.13s3.43-8.14,7.15-17.56l6.76-17.13h4.81l-8.23,20.43-8.23,20.43-2.38.15c-2.32.15-2.4.11-3.2-1.78Zm26.67-18.67V218.08h4.57v41.11h-4.57ZM244.12,209.17c0-.15,1.14-2.9,2.53-6.11a55.73,55.73,0,0,0,2.54-6.44c0-.34-3-6.89-6.6-14.55S236,168.06,236,168a7.77,7.77,0,0,1,2.37,0l2.37.15,5.31,11.57c2.93,6.37,5.5,11.39,5.72,11.17s2.55-5.43,5.18-11.57l4.77-11.17,2.37-.15,2.37-.16-1.18,2.69c-.65,1.48-4.71,10.86-9,20.84l-7.83,18.14h-2.16c-1.18,0-2.15-.12-2.15-.28ZM11.42,197.1c-6.18-2-9.54-5.73-10.85-11.9C.23,183.6,0,177.14,0,169.34V156.16H4.57v13.36c0,15.7.31,17.43,3.75,20.88a9.11,9.11,0,0,0,4.85,2.81c5,1.21,10.74-.26,13.22-3.41,2.62-3.33,2.73-4,2.93-19.3l.2-14.34h4l-.15,15.36-.16,15.35-1.35,2.54c-2.91,5.46-7.2,8-14.13,8.21a21.61,21.61,0,0,1-6.34-.52ZM127.34,197c-2.83-.87-6.7-4.17-8.22-7-1-1.78-1.12-2.9-1.12-7.42,0-6,.5-7.42,3.73-10.83s5.22-4.14,10.73-4.14c4.37,0,5.07.13,7.47,1.46,4,2.24,6.5,6.37,6.82,11.48l.18,2.79-12.56.13-12.57.14,0,1.13c0,3.8,4.06,8.11,8.42,9s7.74-.06,10.82-3.26c1.89-2,2.3-2.09,4.35-1.31l1.35.51-1.58,2.14a15.82,15.82,0,0,1-7.59,5.46,22.7,22.7,0,0,1-10.25-.28Zm15.27-17.5c0-1.82-1.32-4.27-3.21-5.92a10.46,10.46,0,0,0-13.88,0c-1.72,1.5-3.68,4.86-3.7,6.32,0,.49,2.4.64,10.39.64,10.12,0,10.4,0,10.4-1Zm37.56,17.84c-3.76-1.21-7.1-3.71-8.46-6.33-.86-1.65-.57-2.11,1.61-2.56,1.33-.27,1.66-.09,2.66,1.46,2,3.16,7.15,4.94,11.12,3.87,4.88-1.32,6.42-6,2.62-8a56.23,56.23,0,0,0-6.61-2.29c-6.46-1.92-8.81-3.12-9.78-5-2.81-5.44,2.14-11.15,9.68-11.18,4.88,0,8.64,1.71,11.16,5.12l1.25,1.7-1.9.65c-1.83.64-1.93.61-3.06-.83-2.66-3.4-9.41-4.11-12.34-1.3-3.22,3.08-1.49,5.08,6.36,7.37,9.52,2.78,11.42,4.25,11.42,8.8,0,5.21-4.14,8.55-10.91,8.78A20.48,20.48,0,0,1,180.17,197.33ZM41.62,182.56V167.84h4.56v4.76L47.83,171c5-4.78,13.42-4.93,17.74-.32,2.68,2.86,2.94,4.3,2.94,15.91v10.67h-4L64.37,187c-.16-9.65-.24-10.39-1.32-12.13q-2.16-3.48-7.2-3.48a8.16,8.16,0,0,0-6.72,2.87c-2.59,2.73-3,4.42-3,14.12v8.89H41.62Zm35,0V167.84H81.2v29.43H76.64Zm17.24,3.93c-2.58-5.93-5.46-12.57-6.4-14.75l-1.69-4,2.36.16,2.37.15,5.11,12c2.81,6.62,5.26,11.87,5.44,11.67s2.58-5.66,5.31-12.15l5-11.8h2.23c1.91,0,2.19.13,1.91.89-.17.48-3,7.1-6.27,14.7l-6,13.82h-4.7Zm59.9-3.93V167.84h4.06v4.61l1.9-2a10.19,10.19,0,0,1,7.36-3.12c1.29,0,1.4.15,1.4,2s0,2-1.8,2c-3.95,0-7.15,2.65-8.3,6.85a69.83,69.83,0,0,0-.56,10.53v8.5h-4.06Zm48.72,0V167.84h4.57v29.43H202.5Zm19.49,14a7.74,7.74,0,0,1-2.79-2.65c-1.16-1.86-1.23-2.43-1.39-12l-.18-10h-5.49v-4.06h5.59V157.69h4.56v10.15h9.65v4.06h-9.65V191l1.3,1.22c1.34,1.25,3.63,1.56,6.36.84,1.17-.3,1.37-.15,1.85,1.39s.47,1.76-1,2.28c-2.13.74-6.9.64-8.8-.19ZM77.24,161.91c-1.23-.49-1.72-2.72-.89-4,1.06-1.61,2.62-2,4.12-1C83.55,158.92,80.72,163.3,77.24,161.91Zm125.52-.48a3.18,3.18,0,0,1,.82-4.71c1.2-.67,1.48-.66,2.67.12a2.94,2.94,0,0,1-1.47,5.41A3.34,3.34,0,0,1,202.76,161.43Z" style="fill:#484849"/></g></g></g></svg>